M48
; DRILL file {KiCad 9.0.7} date 2026-01-21T12:19:10-0300
; FORMAT={-:-/ absolute / inch / decimal}
; #@! TF.CreationDate,2026-01-21T12:19:10-03:00
; #@! TF.GenerationSoftware,Kicad,Pcbnew,9.0.7
; #@! TF.FileFunction,MixedPlating,1,2
FMAT,2
INCH
; #@! TA.AperFunction,Plated,PTH,ComponentDrill
T1C0.0197
; #@! TA.AperFunction,Plated,PTH,ComponentDrill
T2C0.0236
; #@! TA.AperFunction,Plated,PTH,ComponentDrill
T3C0.0315
; #@! TA.AperFunction,Plated,PTH,ViaDrill
T4C0.0354
; #@! TA.AperFunction,Plated,PTH,ComponentDrill
T5C0.0394
; #@! TA.AperFunction,Plated,PTH,ComponentDrill
T6C0.0472
; #@! TA.AperFunction,Plated,PTH,ComponentDrill
T7C0.0591
; #@! TA.AperFunction,Plated,PTH,ComponentDrill
T8C0.1260
%
G90
G05
T1
X2.9331Y-2.7088
X2.9331Y-5.1181
X2.9607Y-2.642
X2.9607Y-2.7756
X2.9607Y-5.0513
X2.9607Y-5.1849
X3.0276Y-2.6143
X3.0276Y-2.8033
X3.0276Y-5.0236
X3.0276Y-5.2126
X3.0944Y-2.642
X3.0944Y-2.7756
X3.0944Y-5.0513
X3.0944Y-5.1849
X3.122Y-2.7088
X3.122Y-5.1181
X8.2717Y-4.8364
X8.2993Y-4.7696
X8.2993Y-4.9032
X8.3661Y-4.7419
X8.3661Y-4.9309
X8.4055Y-2.7088
X8.433Y-4.7696
X8.433Y-4.9032
X8.4332Y-2.642
X8.4332Y-2.7756
X8.4606Y-4.8364
X8.5Y-2.6143
X8.5Y-2.8033
X8.5668Y-2.642
X8.5668Y-2.7756
X8.5945Y-2.7088
T2
X7.6222Y-4.5276
X7.701Y-4.5276
T3
X2.9921Y-3.728
X2.9921Y-4.028
X3.2358Y-4.2126
X3.5358Y-4.2126
X3.6614Y-3.189
X3.6614Y-3.489
X3.9126Y-4.7421
X4.2126Y-4.7421
X4.5819Y-4.2126
X4.8819Y-4.2126
X5.2783Y-4.0748
X5.4087Y-4.8425
X5.5783Y-4.0748
X5.7087Y-4.8425
X6.1295Y-3.9173
X6.138Y-3.7667
X6.2065Y-4.8096
X6.207Y-4.9208
X6.228Y-3.9173
X6.2365Y-3.7667
X6.3049Y-4.8096
X6.3054Y-4.9208
X7.0079Y-3.4524
X7.0079Y-3.7524
X7.0079Y-3.9051
X7.0079Y-4.2051
X7.0154Y-4.5079
X7.0154Y-4.6063
X7.1531Y-4.5079
X7.1531Y-4.9803
X7.1531Y-5.0984
X7.2516Y-4.5079
X7.2516Y-4.9803
X7.2516Y-5.0984
X7.9406Y-3.2874
X7.9602Y-4.4882
X8.2406Y-3.2874
X8.2602Y-4.4882
X8.6417Y-4.7244
X8.6417Y-4.8031
X8.6417Y-4.8819
T4
X6.063Y-4.9409
T5
X4.9738Y-4.4291
X4.9738Y-5.0291
X5.0738Y-4.4291
X5.0738Y-5.0291
X5.1738Y-4.4291
X5.1738Y-5.0291
X5.2738Y-4.4291
X5.2738Y-5.0291
X5.3738Y-4.4291
X5.3738Y-5.0291
X5.4738Y-4.4291
X5.4738Y-5.0291
X5.5738Y-4.4291
X5.5738Y-5.0291
X5.6098Y-4.685
X5.6738Y-4.4291
X5.6738Y-5.0291
X5.7098Y-4.685
X5.722Y-4.0748
X5.7738Y-4.4291
X5.7738Y-5.0291
X5.8098Y-4.685
X5.822Y-4.0748
X5.8738Y-4.4291
X5.8738Y-5.0291
X5.9098Y-4.685
X5.922Y-4.0748
X5.9738Y-4.4291
X5.9738Y-5.0291
X6.0098Y-4.685
X6.022Y-4.0748
X6.0738Y-4.4291
X6.0738Y-5.0291
X6.1098Y-4.685
X6.122Y-4.0748
X6.1738Y-4.4291
X6.1738Y-5.0291
X6.2098Y-4.685
X6.222Y-4.0748
X6.2738Y-4.4291
X6.2738Y-5.0291
X6.3098Y-4.685
X6.3738Y-4.4291
X6.3738Y-5.0291
X6.4738Y-4.4291
X6.4738Y-5.0291
X6.5738Y-4.4291
X6.5738Y-5.0291
X6.6738Y-4.4291
X6.6738Y-5.0291
X6.7738Y-4.4291
X6.7738Y-5.0291
X6.8738Y-4.4291
X6.8738Y-5.0291
X7.2122Y-4.685
X7.2122Y-4.7835
X7.512Y-4.9016
X7.8112Y-4.9016
T6
X3.1441Y-3.7817
X3.1441Y-3.9785
X3.6363Y-3.7817
X3.6363Y-3.9785
X3.8154Y-3.2482
X3.8154Y-3.4451
X3.8154Y-3.7817
X3.8154Y-3.9785
X3.8154Y-4.3151
X3.8154Y-4.512
X4.3075Y-3.2482
X4.3075Y-3.4451
X4.3075Y-3.7817
X4.3075Y-3.9785
X4.3075Y-4.3151
X4.3075Y-4.512
X4.4866Y-3.7817
X4.4866Y-3.9785
X4.9788Y-3.7817
X4.9788Y-3.9785
X7.1752Y-3.515
X7.1752Y-3.7118
X7.1752Y-4.0484
X7.1752Y-4.2453
X7.6673Y-3.515
X7.6673Y-3.7118
X7.6673Y-4.0484
X7.6673Y-4.2453
X7.8445Y-3.515
X7.8445Y-3.7118
X7.8445Y-4.0484
X7.8445Y-4.2453
X8.3366Y-3.515
X8.3366Y-3.7118
X8.3366Y-4.0484
X8.3366Y-4.2453
T7
X8.6417Y-4.6122
X8.6417Y-4.9941
T8
X3.0276Y-2.7088
X3.0276Y-5.1181
X8.3661Y-4.8364
X8.5Y-2.7088
M30
