M48
; DRILL file {KiCad 9.0.7} date 2026-01-20T06:54:07-0300
; FORMAT={-:-/ absolute / metric / decimal}
; #@! TF.CreationDate,2026-01-20T06:54:07-03:00
; #@! TF.GenerationSoftware,Kicad,Pcbnew,9.0.7
; #@! TF.FileFunction,Plated,1,2,PTH
FMAT,2
METRIC
; #@! TA.AperFunction,Plated,PTH,ComponentDrill
T1C0.500
; #@! TA.AperFunction,Plated,PTH,ComponentDrill
T2C0.600
; #@! TA.AperFunction,Plated,PTH,ComponentDrill
T3C0.800
; #@! TA.AperFunction,Plated,PTH,ViaDrill
T4C0.900
; #@! TA.AperFunction,Plated,PTH,ComponentDrill
T5C1.000
; #@! TA.AperFunction,Plated,PTH,ComponentDrill
T6C1.200
; #@! TA.AperFunction,Plated,PTH,ComponentDrill
T7C1.500
; #@! TA.AperFunction,Plated,PTH,ComponentDrill
T8C3.200
%
G90
G05
T1
X74.5Y-68.803
X74.5Y-130.0
X75.203Y-67.106
X75.203Y-70.5
X75.203Y-128.303
X75.203Y-131.697
X76.9Y-66.403
X76.9Y-71.203
X76.9Y-127.6
X76.9Y-132.4
X78.597Y-67.106
X78.597Y-70.5
X78.597Y-128.303
X78.597Y-131.697
X79.3Y-68.803
X79.3Y-130.0
X210.1Y-122.844
X210.803Y-121.147
X210.803Y-124.541
X212.5Y-120.444
X212.5Y-125.244
X213.5Y-68.803
X214.197Y-121.147
X214.197Y-124.541
X214.203Y-67.106
X214.203Y-70.5
X214.9Y-122.844
X215.9Y-66.403
X215.9Y-71.203
X217.597Y-67.106
X217.597Y-70.5
X218.3Y-68.803
T2
X193.604Y-115.0
X195.604Y-115.0
T3
X76.0Y-94.69
X76.0Y-102.31
X82.19Y-107.0
X89.81Y-107.0
X93.0Y-81.0
X93.0Y-88.62
X99.38Y-120.45
X107.0Y-120.45
X116.38Y-107.0
X124.0Y-107.0
X134.07Y-103.5
X137.38Y-123.0
X141.69Y-103.5
X145.0Y-123.0
X155.69Y-99.5
X155.906Y-95.675
X157.645Y-122.164
X157.657Y-124.989
X158.19Y-99.5
X158.406Y-95.675
X160.145Y-122.164
X160.157Y-124.989
X178.0Y-87.69
X178.0Y-95.31
X178.0Y-99.19
X178.0Y-106.81
X178.19Y-114.5
X178.19Y-117.0
X181.69Y-114.5
X181.69Y-126.5
X181.69Y-129.5
X184.19Y-114.5
X184.19Y-126.5
X184.19Y-129.5
X201.69Y-83.5
X202.19Y-114.0
X209.31Y-83.5
X209.81Y-114.0
X219.5Y-120.0
X219.5Y-122.0
X219.5Y-124.0
T4
X154.0Y-125.5
T5
X126.335Y-112.5
X126.335Y-127.74
X128.875Y-112.5
X128.875Y-127.74
X131.415Y-112.5
X131.415Y-127.74
X133.955Y-112.5
X133.955Y-127.74
X136.495Y-112.5
X136.495Y-127.74
X139.035Y-112.5
X139.035Y-127.74
X141.575Y-112.5
X141.575Y-127.74
X142.49Y-119.0
X144.115Y-112.5
X144.115Y-127.74
X145.03Y-119.0
X145.34Y-103.5
X146.655Y-112.5
X146.655Y-127.74
X147.57Y-119.0
X147.88Y-103.5
X149.195Y-112.5
X149.195Y-127.74
X150.11Y-119.0
X150.42Y-103.5
X151.735Y-112.5
X151.735Y-127.74
X152.65Y-119.0
X152.96Y-103.5
X154.275Y-112.5
X154.275Y-127.74
X155.19Y-119.0
X155.5Y-103.5
X156.815Y-112.5
X156.815Y-127.74
X157.73Y-119.0
X158.04Y-103.5
X159.355Y-112.5
X159.355Y-127.74
X160.27Y-119.0
X161.895Y-112.5
X161.895Y-127.74
X164.435Y-112.5
X164.435Y-127.74
X166.975Y-112.5
X166.975Y-127.74
X169.515Y-112.5
X169.515Y-127.74
X172.055Y-112.5
X172.055Y-127.74
X174.595Y-112.5
X174.595Y-127.74
X183.19Y-119.0
X183.19Y-121.5
X190.804Y-124.5
X198.404Y-124.5
T6
X79.861Y-96.055
X79.861Y-101.055
X92.361Y-96.055
X92.361Y-101.055
X96.911Y-82.505
X96.911Y-87.505
X96.911Y-96.055
X96.911Y-101.055
X96.911Y-109.605
X96.911Y-114.605
X109.411Y-82.505
X109.411Y-87.505
X109.411Y-96.055
X109.411Y-101.055
X109.411Y-109.605
X109.411Y-114.605
X113.961Y-96.055
X113.961Y-101.055
X126.461Y-96.055
X126.461Y-101.055
X182.25Y-89.28
X182.25Y-94.28
X182.25Y-102.83
X182.25Y-107.83
X194.75Y-89.28
X194.75Y-94.28
X194.75Y-102.83
X194.75Y-107.83
X199.25Y-89.28
X199.25Y-94.28
X199.25Y-102.83
X199.25Y-107.83
X211.75Y-89.28
X211.75Y-94.28
X211.75Y-102.83
X211.75Y-107.83
T7
X219.5Y-117.15
X219.5Y-126.85
T8
X76.9Y-68.803
X76.9Y-130.0
X212.5Y-122.844
X215.9Y-68.803
M30
